<?xml version="1.0" standalone="no"?>
<!DOCTYPE svg PUBLIC "-//W3C//DTD SVG 20010904//EN"
 "http://www.w3.org/TR/2001/REC-SVG-20010904/DTD/svg10.dtd">
<svg version="1.0" xmlns="http://www.w3.org/2000/svg"
 width="100.000000pt" height="100.000000pt" viewBox="0 0 100.000000 100.000000"
 preserveAspectRatio="xMidYMid meet">

<g transform="translate(0.000000,100.000000) scale(0.100000,-0.100000)"
fill="#000000" stroke="none">
<path d="M417 850 c-105 -27 -197 -104 -244 -205 -23 -51 -28 -73 -28 -145 0
-76 3 -92 32 -151 39 -79 102 -140 181 -177 48 -22 71 -27 142 -27 71 0 94 5
142 27 79 37 142 98 181 177 28 58 32 75 32 151 0 76 -4 93 -32 151 -60 121
-171 196 -300 204 -37 2 -85 0 -106 -5z m228 -45 c63 -30 139 -108 168 -173
30 -66 30 -198 0 -264 -30 -66 -105 -143 -172 -175 -81 -40 -201 -40 -282 0
-67 32 -142 109 -172 175 -30 66 -30 198 0 264 25 54 90 128 141 160 88 54
222 60 317 13z"/>
<path d="M420 801 c-86 -28 -159 -90 -201 -171 -20 -37 -24 -60 -24 -130 0
-73 4 -92 27 -135 32 -60 87 -114 148 -146 37 -20 60 -24 130 -24 70 0 93 4
130 24 61 32 116 86 148 146 23 43 27 62 27 135 0 73 -4 92 -27 135 -14 28
-38 61 -54 75 -23 21 -21 16 10 -24 118 -158 64 -378 -113 -459 -71 -33 -179
-30 -253 6 -107 53 -163 144 -163 267 0 123 56 215 163 267 59 29 152 38 217
20 24 -7 27 -6 18 4 -14 14 -147 22 -183 10z"/>
<path d="M637 769 c7 -7 15 -10 18 -7 3 3 -2 9 -12 12 -14 6 -15 5 -6 -5z"/>
<path d="M477 674 c-4 -4 -7 -38 -7 -75 l0 -68 -67 -3 c-65 -3 -68 -4 -68 -28
0 -24 3 -25 67 -28 l67 -3 3 -72 c3 -69 4 -72 28 -72 24 0 25 3 28 72 l3 72
67 3 c64 3 67 4 67 28 0 24 -3 25 -67 28 l-67 3 -3 72 c-3 64 -5 72 -23 75
-12 2 -24 0 -28 -4z m41 -82 l3 -71 67 -3 c52 -2 67 -6 67 -18 0 -12 -15 -16
-67 -18 l-67 -3 -3 -72 c-2 -56 -6 -72 -18 -72 -12 0 -16 16 -18 72 l-3 72
-67 3 c-52 2 -67 6 -67 18 0 12 15 16 68 18 l67 3 0 68 c0 37 3 71 7 75 18 17
28 -7 31 -72z"/>
</g>
</svg>
